<!-- assets/icons/google.svg -->
<svg xmlns="http://www.w3.org/2000/svg" width="24" height="24" viewBox="0 0 48 48">
  <path fill="#EA4335" d="M24 9.5c3.6 0 6.5 1.5 8.4 2.8l6.2-6.2C34.7 2.5 29.7 0 24 0 14.7 0 6.9 5.8 2.9 14.2l7.3 5.7C12.2 13.5 17.6 9.5 24 9.5z"/>
  <path fill="#4285F4" d="M46.1 24.5c0-1.7-.1-3.3-.4-4.9H24v9.3h12.5c-.5 3-2.2 5.5-4.7 7.1l7.3 5.7c4.3-4 6.9-9.8 6.9-17.2z"/>
  <path fill="#FBBC05" d="M10.2 28.7c-1.1-3.1-1.1-6.3 0-9.3l-7.3-5.7c-3.2 6.3-3.2 13.9 0 20.2l7.3-5.7z"/>
  <path fill="#34A853" d="M24 48c5.7 0 10.5-1.9 14-5.2l-7.3-5.7c-2 1.3-4.5 2-6.7 2-6.4 0-11.8-4.1-13.8-9.8l-7.3 5.7C6.9 42.2 14.7 48 24 48z"/>
  <path fill="none" d="M0 0h48v48H0z"/>
</svg>
